<svg width="24" height="24" viewBox="0 0 24 24" fill="none" xmlns="http://www.w3.org/2000/svg">
<path fill-rule="evenodd" clip-rule="evenodd" d="M5.32507e-07 21.2273L0 21.2294L5.32507e-07 21.2315V21.2273Z" fill="#E9E9E9"/>
<path fill-rule="evenodd" clip-rule="evenodd" d="M11.0769 14.8598L11.6516 15.4434L11.0769 14.8584V14.8598Z" fill="#E9E9E9"/>
<path d="M2.76923 0C1.23983 6.68844e-08 -6.68524e-08 1.24042 0 2.77056L5.32507e-07 21.2273L0 21.2294L5.32507e-07 21.2315C0.00113438 22.7607 1.24053 24 2.76923 24C4.29837 24 5.53804 22.76 5.53846 21.2302V9.61376C5.53846 9.47497 5.70666 9.40601 5.80401 9.50487L11.0769 14.8598V14.8584V7.16496L9.89883 5.98752L8.59445 7.29252C8.05373 7.83351 7.17704 7.83351 6.63631 7.29252L3.84662 4.5015C3.54342 4.71986 3.17134 4.84848 2.76923 4.84848C1.74963 4.84848 0.923077 4.02153 0.923077 3.00144C0.923077 1.98135 1.74963 1.1544 2.76923 1.1544C3.78883 1.1544 4.61538 1.98135 4.61538 3.00144C4.61538 3.28307 4.55239 3.54997 4.43972 3.78882L7.28903 6.63949C7.46927 6.81982 7.7615 6.81982 7.94174 6.6395L9.24578 5.33484L4.84414 0.935675C4.33677 0.361815 3.59523 0 2.76923 0Z" fill="#E9E9E9"/>
<path d="M24 2.77056C24 1.24042 22.7602 -6.68844e-08 21.2308 0C19.7014 6.68844e-08 18.4615 1.24042 18.4615 2.77056L18.4615 14.1711C18.4615 14.3093 18.2946 14.3786 18.1969 14.2809L12 8.08751V15.7973L13.6891 17.5127L14.944 16.2572C15.4847 15.7162 16.3614 15.7162 16.9021 16.2572L20.2929 19.6496C20.5678 19.4871 20.8884 19.3939 21.2308 19.3939C22.2504 19.3939 23.0769 20.2209 23.0769 21.2409C23.0769 22.261 22.2504 23.088 21.2308 23.088C20.2112 23.088 19.3846 22.261 19.3846 21.2409C19.3846 20.8984 19.4778 20.5776 19.6402 20.3027L16.2494 16.9103C16.0692 16.7299 15.777 16.7299 15.5967 16.9103L14.337 18.1706L19.179 23.0879C19.6863 23.6611 20.4054 24 21.2308 24C22.7602 24 24 22.7596 24 21.2294V2.77056Z" fill="#E9E9E9"/>
<path d="M12.7879 18.4144C12.4971 18.7053 12 18.4992 12 18.0879V16.3792L11.0769 15.4557V18.0879C11.0769 19.322 12.5683 19.9401 13.4406 19.0674L14.0511 18.4566L13.3984 17.8036L12.7879 18.4144Z" fill="#E9E9E9"/>
<path d="M11.0769 14.8584L11.6516 15.4434L12 15.7973V8.08751L11.0769 7.16496V14.8584Z" fill="#E9E9E9"/>
<path d="M10.289 5.59714C10.5798 5.30624 11.0769 5.51227 11.0769 5.92365V6.46464L12 7.38815V5.92365C12 4.6895 10.5086 4.07143 9.63631 4.94411L10.289 5.59714Z" fill="#E9E9E9"/>
</svg>
